# xmcd
#
# Track frame offsets:
#	150
#	8680
#	22907
#	33522
#	45622
#	61652
#	86702
#	98927
#	109290
#	123067
#	135405
#	150377
#	163077
#	174830
#
# Disc length: 2523 seconds
#
# Revision: 0
# Processed by: cddbd v1.5.2PL0 Copyright (c) Steve Scherf et al.
# Submitted via: EZCDAudioConverter 2.1.7.1
#
DISCID=9c09d90e
DTITLE=V/A - A Date With John Waters
DYEAR=2007
DGENRE=
TTITLE0=Patience and Prudence - Tonight You Belong To Me
TTITLE1=Elton Motello - Jet Boy Jet Girl
TTITLE2=Clarence "Frogman" Henry - Ain't Got No Home
TTITLE3=Mildred Bailey and Her Swing Band - I'd Love To Take Orders From You
TTITLE4=John Prine With Iris DeMent - In Spite Of Ourselves
TTITLE5=Ike and Tina Turner - All I Can Do Is Cry
TTITLE6=Edith Massey - Big Girls Don't Cry
TTITLE7=Earl Grant - Imitation Of Life
TTITLE8=Mink Stole - Sometimes I Wish I Had A Gun
TTITLE9=Josie Cotton - Johnny Are You Queer?
TTITLE10=Ray Charles - The Right Time
TTITLE11=Dean Martin - Hit The Road To Dreamland
TTITLE12=Eileen Barton With The New Yorkers - If I Knew You Were Comin' I'd've
TTITLE12=Baked A Cake
TTITLE13=Shirley and Lee - Bewildered
EXTD=
EXTT0=
EXTT1=
EXTT2=
EXTT3=
EXTT4=
EXTT5=
EXTT6=
EXTT7=
EXTT8=
EXTT9=
EXTT10=
EXTT11=
EXTT12=
EXTT13=
PLAYORDER=
